<?xml version="1.0" encoding="UTF-8" standalone="no"?>
<svg
   xmlns:dc="http://purl.org/dc/elements/1.1/"
   xmlns:cc="http://creativecommons.org/ns#"
   xmlns:rdf="http://www.w3.org/1999/02/22-rdf-syntax-ns#"
   xmlns:svg="http://www.w3.org/2000/svg"
   xmlns="http://www.w3.org/2000/svg"
   xmlns:sodipodi="http://sodipodi.sourceforge.net/DTD/sodipodi-0.dtd"
   xmlns:inkscape="http://www.inkscape.org/namespaces/inkscape"
   version="1.0"
   width="1220.000000pt"
   height="240.000000pt"
   viewBox="0 0 1220.000000 240.000000"
   preserveAspectRatio="xMidYMid meet"
   id="svg20"
   sodipodi:docname="logo.svg"
   inkscape:version="1.0.1 (3bc2e813f5, 2020-09-07)">
  <defs
     id="defs24" />
  <sodipodi:namedview
     pagecolor="#ffffff"
     bordercolor="#666666"
     borderopacity="1"
     objecttolerance="10"
     gridtolerance="10"
     guidetolerance="10"
     inkscape:pageopacity="0"
     inkscape:pageshadow="2"
     inkscape:window-width="2454"
     inkscape:window-height="1559"
     id="namedview22"
     showgrid="false"
     inkscape:zoom="0.89260563"
     inkscape:cx="946.66667"
     inkscape:cy="300"
     inkscape:window-x="2177"
     inkscape:window-y="185"
     inkscape:window-maximized="0"
     inkscape:current-layer="svg20"
     inkscape:document-rotation="0" />
  <metadata
     id="metadata2">
Created by potrace 1.16, written by Peter Selinger 2001-2019
<rdf:RDF>
  <cc:Work
     rdf:about="">
    <dc:format>image/svg+xml</dc:format>
    <dc:type
       rdf:resource="http://purl.org/dc/dcmitype/StillImage" />
  </cc:Work>
</rdf:RDF>
</metadata>
  <g
     transform="matrix(0.1,0,0,-0.1,-103.5,341.10355)"
     fill="#ffffff"
     stroke="none"
     id="g18">
    <path
       d="m 7061,3311 c -46,-12 -79,-39 -118,-95 -28,-41 -33,-57 -33,-108 0,-68 13,-99 67,-151 46,-44 85,-57 174,-57 99,0 125,8 179,57 64,57 78,100 63,188 -13,77 -33,108 -91,142 -37,22 -60,27 -126,29 -45,2 -96,-1 -115,-5 z"
       id="path4" />
    <path
       d="m 11385,3315 c -5,-2 -22,-6 -38,-9 -33,-8 -102,-68 -123,-107 -15,-29 -19,-146 -6,-165 4,-6 21,-19 39,-28 17,-9 40,-29 50,-46 11,-19 30,-34 53,-40 19,-5 133,-10 252,-10 119,0 228,-4 243,-10 55,-21 55,-12 54,-832 -1,-869 -8,-803 95,-881 49,-37 76,-50 119,-57 79,-13 121,-3 191,44 109,73 100,0 106,905 l 5,784 28,21 c 27,20 44,21 276,26 219,4 250,7 276,24 81,51 107,95 108,180 1,92 -29,151 -90,179 l -48,22 -790,2 c -434,1 -794,0 -800,-2 z"
       id="path6" />
    <path
       d="m 5394,3279 c -54,-16 -132,-111 -154,-189 -5,-18 -10,-420 -11,-910 l -1,-879 51,-84 c 49,-82 58,-89 125,-111 10,-4 305,-7 656,-7 689,-1 691,-1 722,53 20,36 17,254 -4,294 -31,57 -42,58 -511,61 -480,3 -478,3 -496,71 -7,24 -11,291 -11,764 0,707 -1,729 -20,782 -27,70 -92,140 -145,155 -47,13 -157,13 -201,0 z"
       id="path8" />
    <path
       d="m 1376,3273 c -16,-3 -60,-23 -98,-45 -62,-38 -71,-48 -103,-111 -41,-81 -45,-132 -16,-204 10,-26 29,-83 41,-127 12,-43 37,-106 55,-140 18,-33 41,-88 50,-121 9,-33 30,-83 46,-112 17,-29 39,-85 50,-125 11,-40 33,-93 49,-118 15,-25 38,-79 50,-120 12,-41 35,-99 52,-127 16,-29 38,-82 48,-118 10,-36 32,-89 48,-118 17,-28 38,-79 48,-112 9,-33 37,-100 61,-150 25,-49 55,-110 67,-135 28,-59 140,-154 201,-169 24,-6 84,-11 132,-11 117,0 168,24 258,123 51,56 69,85 86,136 12,36 35,89 51,118 16,28 37,81 48,117 10,36 32,90 48,119 17,28 40,86 52,127 12,41 35,98 51,126 16,28 38,82 50,120 11,38 34,92 49,119 15,28 38,83 50,124 12,41 35,98 50,125 16,28 36,80 45,116 23,91 40,120 70,120 20,0 31,-13 65,-78 69,-134 152,-195 265,-196 101,-1 145,29 260,175 94,119 174,183 253,201 89,20 306,17 369,-5 88,-31 153,-129 153,-232 0,-77 -123,-127 -435,-179 -50,-9 -120,-24 -155,-35 -36,-11 -130,-32 -210,-47 -187,-34 -320,-93 -419,-188 -74,-71 -98,-110 -142,-226 -27,-73 -32,-99 -33,-180 0,-86 3,-105 39,-205 38,-108 41,-112 126,-200 73,-75 104,-98 181,-137 51,-26 118,-52 148,-58 155,-29 458,-19 563,19 164,60 245,96 289,132 44,35 56,39 105,39 47,0 58,-4 81,-29 143,-153 154,-161 234,-171 174,-21 291,47 317,187 9,43 5,79 -19,215 -17,90 -37,188 -46,218 -24,85 -30,280 -10,363 21,89 21,337 1,422 -8,33 -15,81 -15,107 0,61 -37,254 -56,289 -53,104 -152,206 -262,273 -7,4 -90,28 -185,53 l -172,46 -245,1 c -213,1 -253,-1 -305,-18 -33,-10 -110,-31 -172,-46 -74,-19 -126,-38 -155,-58 -24,-16 -63,-39 -88,-52 -24,-12 -69,-47 -100,-76 -30,-30 -74,-73 -97,-96 l -42,-41 -11,27 c -5,15 -10,55 -10,90 0,77 -22,156 -52,183 -13,11 -49,35 -82,53 -52,29 -67,33 -130,32 -89,-1 -108,-8 -184,-71 -49,-41 -63,-60 -77,-103 -10,-29 -33,-83 -51,-120 -18,-36 -43,-101 -54,-143 -11,-42 -33,-102 -49,-133 -16,-31 -38,-92 -50,-135 -12,-43 -35,-105 -51,-137 -16,-32 -39,-93 -51,-136 -11,-42 -36,-108 -55,-147 -19,-39 -34,-77 -34,-85 0,-7 -9,-31 -21,-53 -28,-56 -56,-51 -89,17 -60,121 -83,178 -106,264 -13,50 -35,110 -48,133 -14,23 -34,80 -46,126 -12,46 -34,110 -50,141 -16,31 -38,94 -50,140 -12,46 -33,106 -47,134 -15,28 -38,85 -52,126 -23,65 -32,79 -76,113 -27,21 -61,44 -75,51 -28,15 -129,26 -174,19 z M 4430,2050 c 13,-13 20,-33 20,-61 0,-51 -46,-236 -67,-269 -24,-37 -119,-130 -133,-130 -7,0 -37,-15 -68,-34 -64,-39 -140,-56 -246,-56 -126,1 -208,50 -257,154 -37,77 -36,108 4,175 29,49 42,59 127,103 87,44 108,50 235,69 77,11 169,31 205,44 85,30 153,32 180,5 z"
       id="path10" />
    <path
       d="m 7691,3235 c -75,-21 -135,-69 -166,-131 l -26,-51 -2,-864 c -2,-660 1,-874 10,-904 8,-26 36,-65 75,-107 56,-58 69,-67 113,-74 70,-12 164,-10 218,5 36,10 57,27 101,76 31,35 62,76 68,92 10,21 13,141 14,478 2,507 12,679 43,728 11,18 30,50 42,72 46,85 77,113 182,165 85,42 109,50 157,50 96,0 211,-74 254,-163 39,-81 46,-196 46,-739 0,-315 4,-507 11,-531 13,-49 71,-148 108,-185 39,-38 108,-57 207,-55 99,2 133,16 200,79 45,42 53,57 62,104 27,139 22,1505 -4,1553 -5,9 -28,29 -51,46 -30,22 -46,42 -54,72 -17,54 -79,122 -169,183 -55,38 -96,56 -178,79 -97,28 -121,31 -257,31 -133,0 -162,-3 -254,-28 -121,-32 -121,-32 -212,-98 -50,-37 -81,-52 -113,-55 -57,-7 -81,8 -112,68 -22,45 -33,54 -91,81 -80,36 -149,43 -222,23 z"
       id="path12" />
    <path
       d="m 10205,3205 c -76,-11 -118,-23 -180,-53 -44,-22 -100,-49 -125,-61 -87,-41 -263,-239 -299,-337 -12,-30 -36,-77 -56,-105 -19,-28 -39,-67 -45,-87 -13,-49 -13,-675 0,-724 6,-20 26,-59 45,-87 20,-28 44,-75 56,-105 36,-98 212,-296 299,-337 25,-12 81,-39 125,-60 113,-55 251,-73 510,-66 214,6 306,22 375,65 25,15 70,38 100,50 86,35 254,207 280,287 7,22 13,69 13,103 -1,81 -18,106 -103,150 -51,26 -74,33 -105,29 -48,-6 -137,-58 -210,-124 -75,-67 -140,-112 -205,-140 -30,-13 -75,-33 -100,-45 -25,-11 -70,-22 -100,-25 -51,-4 -63,-1 -155,45 -68,34 -120,69 -161,109 -60,57 -62,60 -74,132 -14,86 -3,143 33,163 16,10 122,14 402,19 282,4 389,8 414,18 50,20 111,119 111,181 0,62 -61,161 -111,181 -25,10 -132,14 -414,18 -280,5 -386,9 -402,19 -36,20 -47,77 -33,163 12,72 14,75 74,132 41,40 93,75 161,109 136,68 155,66 372,-32 52,-24 120,-72 188,-133 73,-66 162,-118 210,-124 31,-4 54,3 105,29 83,43 102,69 103,144 2,84 -19,147 -59,184 -19,17 -40,46 -48,65 -8,18 -27,40 -43,48 -15,9 -41,29 -57,45 -16,17 -54,41 -85,53 -31,13 -76,36 -101,51 -73,45 -160,59 -395,63 -146,3 -241,0 -310,-10 z"
       id="path14" />
    <path
       d="m 7061,2733 c -58,-21 -126,-87 -140,-138 -12,-45 -14,-982 -3,-1221 l 7,-140 50,-58 c 27,-32 60,-62 74,-68 35,-13 186,-11 213,3 13,6 40,28 61,48 77,72 72,21 75,746 2,477 0,661 -9,693 -14,50 -59,94 -133,128 -59,28 -129,30 -195,7 z"
       id="path16" />
  </g>
</svg>
